<?xml version="1.0" encoding="utf-8" standalone="no"?>
<!DOCTYPE svg PUBLIC "-//W3C//DTD SVG 1.1//EN"
  "http://www.w3.org/Graphics/SVG/1.1/DTD/svg11.dtd">
<svg xmlns:xlink="http://www.w3.org/1999/xlink" width="687.241875pt" height="422.72115pt" viewBox="0 0 687.241875 422.72115" xmlns="http://www.w3.org/2000/svg" version="1.1">
 <metadata>
  <rdf:RDF xmlns:dc="http://purl.org/dc/elements/1.1/" xmlns:cc="http://creativecommons.org/ns#" xmlns:rdf="http://www.w3.org/1999/02/22-rdf-syntax-ns#">
   <cc:Work>
    <dc:type rdf:resource="http://purl.org/dc/dcmitype/StillImage"/>
    <dc:date>2026-03-28T23:11:28.945894</dc:date>
    <dc:format>image/svg+xml</dc:format>
    <dc:creator>
     <cc:Agent>
      <dc:title>Matplotlib v3.10.8, https://matplotlib.org/</dc:title>
     </cc:Agent>
    </dc:creator>
   </cc:Work>
  </rdf:RDF>
 </metadata>
 <defs>
  <style type="text/css">*{stroke-linejoin: round; stroke-linecap: butt}</style>
 </defs>
 <g id="figure_1">
  <g id="patch_1">
   <path d="M 0 422.72115 
L 687.241875 422.72115 
L 687.241875 0 
L 0 0 
z
" style="fill: #f0f0f0"/>
  </g>
  <g id="axes_1">
   <g id="patch_2">
    <path d="M 53.641875 378.05415 
L 680.041875 378.05415 
L 680.041875 28.13415 
L 53.641875 28.13415 
z
" style="fill: #f0f0f0"/>
   </g>
   <g id="matplotlib.axis_1">
    <g id="xtick_1">
     <g id="line2d_1">
      <path d="M 82.114602 378.05415 
L 82.114602 28.13415 
" clip-path="url(#p379e2316bb)" style="fill: none; stroke: #cbcbcb"/>
     </g>
     <g id="line2d_2"/>
     <g id="text_1">
      <!-- 0 -->
      <g transform="translate(78.341165 391.918525) scale(0.14 -0.14)">
       <defs>
        <path id="SegoeUI-30" d="M 3188 2259 
Q 3188 1697 3086 1262 
Q 2984 828 2792 529 
Q 2600 231 2320 76 
Q 2041 -78 1684 -78 
Q 1347 -78 1083 70 
Q 819 219 637 503 
Q 456 788 362 1202 
Q 269 1616 269 2150 
Q 269 2738 367 3188 
Q 466 3638 656 3942 
Q 847 4247 1130 4401 
Q 1413 4556 1778 4556 
Q 3188 4556 3188 2259 
z
M 2663 2209 
Q 2663 4122 1753 4122 
Q 794 4122 794 2175 
Q 794 359 1734 359 
Q 2663 359 2663 2209 
z
" transform="scale(0.015625)"/>
       </defs>
       <use xlink:href="#SegoeUI-30"/>
      </g>
     </g>
    </g>
    <g id="xtick_2">
     <g id="line2d_3">
      <path d="M 173.96211 378.05415 
L 173.96211 28.13415 
" clip-path="url(#p379e2316bb)" style="fill: none; stroke: #cbcbcb"/>
     </g>
     <g id="line2d_4"/>
     <g id="text_2">
      <!-- 10 -->
      <g transform="translate(166.415235 391.918525) scale(0.14 -0.14)">
       <defs>
        <path id="SegoeUI-31" d="M 2263 0 
L 1750 0 
L 1750 3872 
Q 1691 3813 1577 3736 
Q 1463 3659 1320 3584 
Q 1178 3509 1020 3443 
Q 863 3378 713 3341 
L 713 3859 
Q 881 3906 1070 3986 
Q 1259 4066 1442 4164 
Q 1625 4263 1787 4370 
Q 1950 4478 2069 4581 
L 2263 4581 
L 2263 0 
z
" transform="scale(0.015625)"/>
       </defs>
       <use xlink:href="#SegoeUI-31"/>
       <use xlink:href="#SegoeUI-30" transform="translate(53.90625 0)"/>
      </g>
     </g>
    </g>
    <g id="xtick_3">
     <g id="line2d_5">
      <path d="M 265.809617 378.05415 
L 265.809617 28.13415 
" clip-path="url(#p379e2316bb)" style="fill: none; stroke: #cbcbcb"/>
     </g>
     <g id="line2d_6"/>
     <g id="text_3">
      <!-- 20 -->
      <g transform="translate(258.262742 391.918525) scale(0.14 -0.14)">
       <defs>
        <path id="SegoeUI-32" d="M 2413 3306 
Q 2413 3513 2348 3666 
Q 2284 3819 2173 3920 
Q 2063 4022 1913 4072 
Q 1763 4122 1588 4122 
Q 1438 4122 1294 4081 
Q 1150 4041 1014 3969 
Q 878 3897 751 3797 
Q 625 3697 516 3575 
L 516 4125 
Q 731 4334 998 4445 
Q 1266 4556 1650 4556 
Q 1925 4556 2159 4476 
Q 2394 4397 2566 4244 
Q 2738 4091 2836 3866 
Q 2934 3641 2934 3350 
Q 2934 3084 2873 2868 
Q 2813 2653 2689 2462 
Q 2566 2272 2378 2097 
Q 2191 1922 1938 1741 
Q 1622 1516 1417 1356 
Q 1213 1197 1092 1058 
Q 972 919 923 780 
Q 875 641 875 459 
L 3106 459 
L 3106 0 
L 341 0 
L 341 222 
Q 341 509 403 728 
Q 466 947 609 1144 
Q 753 1341 986 1537 
Q 1219 1734 1556 1981 
Q 1800 2156 1964 2315 
Q 2128 2475 2228 2634 
Q 2328 2794 2370 2958 
Q 2413 3122 2413 3306 
z
" transform="scale(0.015625)"/>
       </defs>
       <use xlink:href="#SegoeUI-32"/>
       <use xlink:href="#SegoeUI-30" transform="translate(53.90625 0)"/>
      </g>
     </g>
    </g>
    <g id="xtick_4">
     <g id="line2d_7">
      <path d="M 357.657124 378.05415 
L 357.657124 28.13415 
" clip-path="url(#p379e2316bb)" style="fill: none; stroke: #cbcbcb"/>
     </g>
     <g id="line2d_8"/>
     <g id="text_4">
      <!-- 30 -->
      <g transform="translate(350.110249 391.918525) scale(0.14 -0.14)">
       <defs>
        <path id="SegoeUI-33" d="M 2978 1269 
Q 2978 966 2864 717 
Q 2750 469 2542 292 
Q 2334 116 2043 19 
Q 1753 -78 1403 -78 
Q 763 -78 384 166 
L 384 716 
Q 838 359 1422 359 
Q 1656 359 1845 418 
Q 2034 478 2170 590 
Q 2306 703 2379 862 
Q 2453 1022 2453 1222 
Q 2453 2100 1203 2100 
L 831 2100 
L 831 2534 
L 1184 2534 
Q 2291 2534 2291 3359 
Q 2291 4122 1447 4122 
Q 972 4122 556 3803 
L 556 4300 
Q 984 4556 1575 4556 
Q 1856 4556 2084 4478 
Q 2313 4400 2475 4259 
Q 2638 4119 2727 3922 
Q 2816 3725 2816 3488 
Q 2816 2603 1922 2350 
L 1922 2338 
Q 2150 2313 2344 2227 
Q 2538 2141 2678 2003 
Q 2819 1866 2898 1680 
Q 2978 1494 2978 1269 
z
" transform="scale(0.015625)"/>
       </defs>
       <use xlink:href="#SegoeUI-33"/>
       <use xlink:href="#SegoeUI-30" transform="translate(53.90625 0)"/>
      </g>
     </g>
    </g>
    <g id="xtick_5">
     <g id="line2d_9">
      <path d="M 449.504632 378.05415 
L 449.504632 28.13415 
" clip-path="url(#p379e2316bb)" style="fill: none; stroke: #cbcbcb"/>
     </g>
     <g id="line2d_10"/>
     <g id="text_5">
      <!-- 40 -->
      <g transform="translate(441.957757 391.918525) scale(0.14 -0.14)">
       <defs>
        <path id="SegoeUI-34" d="M 2656 4481 
L 2656 1522 
L 3231 1522 
L 3231 1053 
L 2656 1053 
L 2656 0 
L 2150 0 
L 2150 1053 
L 44 1053 
L 44 1497 
Q 338 1828 638 2204 
Q 938 2581 1211 2968 
Q 1484 3356 1717 3742 
Q 1950 4128 2109 4481 
L 2656 4481 
z
M 622 1522 
L 2150 1522 
L 2150 3716 
Q 1916 3306 1706 2984 
Q 1497 2663 1308 2400 
Q 1119 2138 947 1925 
Q 775 1713 622 1522 
z
" transform="scale(0.015625)"/>
       </defs>
       <use xlink:href="#SegoeUI-34"/>
       <use xlink:href="#SegoeUI-30" transform="translate(53.90625 0)"/>
      </g>
     </g>
    </g>
    <g id="xtick_6">
     <g id="line2d_11">
      <path d="M 541.352139 378.05415 
L 541.352139 28.13415 
" clip-path="url(#p379e2316bb)" style="fill: none; stroke: #cbcbcb"/>
     </g>
     <g id="line2d_12"/>
     <g id="text_6">
      <!-- 50 -->
      <g transform="translate(533.805264 391.918525) scale(0.14 -0.14)">
       <defs>
        <path id="SegoeUI-35" d="M 3028 1369 
Q 3028 1041 2915 775 
Q 2803 509 2595 318 
Q 2388 128 2094 25 
Q 1800 -78 1441 -78 
Q 816 -78 513 109 
L 513 653 
Q 969 359 1447 359 
Q 1691 359 1886 431 
Q 2081 503 2218 631 
Q 2356 759 2429 940 
Q 2503 1122 2503 1338 
Q 2503 1775 2209 2023 
Q 1916 2272 1356 2272 
Q 1266 2272 1166 2269 
Q 1066 2266 966 2261 
Q 866 2256 770 2250 
Q 675 2244 597 2234 
L 750 4481 
L 2822 4481 
L 2822 4019 
L 1194 4019 
L 1103 2703 
Q 1203 2709 1315 2714 
Q 1428 2719 1516 2719 
Q 1872 2719 2153 2625 
Q 2434 2531 2629 2357 
Q 2825 2184 2926 1932 
Q 3028 1681 3028 1369 
z
" transform="scale(0.015625)"/>
       </defs>
       <use xlink:href="#SegoeUI-35"/>
       <use xlink:href="#SegoeUI-30" transform="translate(53.90625 0)"/>
      </g>
     </g>
    </g>
    <g id="xtick_7">
     <g id="line2d_13">
      <path d="M 633.199646 378.05415 
L 633.199646 28.13415 
" clip-path="url(#p379e2316bb)" style="fill: none; stroke: #cbcbcb"/>
     </g>
     <g id="line2d_14"/>
     <g id="text_7">
      <!-- 60 -->
      <g transform="translate(625.652771 391.918525) scale(0.14 -0.14)">
       <defs>
        <path id="SegoeUI-36" d="M 3194 1422 
Q 3194 1094 3087 819 
Q 2981 544 2793 344 
Q 2606 144 2347 33 
Q 2088 -78 1784 -78 
Q 1447 -78 1180 62 
Q 913 203 727 467 
Q 541 731 444 1112 
Q 347 1494 347 1972 
Q 347 2556 476 3032 
Q 606 3509 845 3848 
Q 1084 4188 1421 4372 
Q 1759 4556 2175 4556 
Q 2638 4556 2919 4428 
L 2919 3944 
Q 2572 4122 2188 4122 
Q 1888 4122 1647 3987 
Q 1406 3853 1234 3608 
Q 1063 3363 970 3016 
Q 878 2669 878 2244 
L 891 2244 
Q 1200 2803 1913 2803 
Q 2206 2803 2442 2703 
Q 2678 2603 2845 2420 
Q 3013 2238 3103 1984 
Q 3194 1731 3194 1422 
z
M 2669 1356 
Q 2669 1591 2609 1778 
Q 2550 1966 2439 2097 
Q 2328 2228 2165 2298 
Q 2003 2369 1797 2369 
Q 1606 2369 1443 2297 
Q 1281 2225 1162 2101 
Q 1044 1978 976 1814 
Q 909 1650 909 1466 
Q 909 1234 975 1032 
Q 1041 831 1159 681 
Q 1278 531 1442 445 
Q 1606 359 1806 359 
Q 2000 359 2159 432 
Q 2319 506 2431 637 
Q 2544 769 2606 951 
Q 2669 1134 2669 1356 
z
" transform="scale(0.015625)"/>
       </defs>
       <use xlink:href="#SegoeUI-36"/>
       <use xlink:href="#SegoeUI-30" transform="translate(53.90625 0)"/>
      </g>
     </g>
    </g>
    <g id="text_8">
     <!-- Reading Number -->
     <g style="fill: #333333" transform="translate(299.802 411.575775) scale(0.168 -0.168)">
      <defs>
       <path id="SegoeUI-Bold-52" d="M 4272 0 
L 3113 0 
L 2416 1153 
Q 2338 1284 2266 1387 
Q 2194 1491 2120 1564 
Q 2047 1638 1967 1677 
Q 1888 1716 1794 1716 
L 1522 1716 
L 1522 0 
L 513 0 
L 513 4481 
L 2113 4481 
Q 3744 4481 3744 3263 
Q 3744 3028 3672 2829 
Q 3600 2631 3469 2472 
Q 3338 2313 3152 2197 
Q 2966 2081 2738 2016 
L 2738 2003 
Q 2838 1972 2931 1901 
Q 3025 1831 3112 1737 
Q 3200 1644 3279 1536 
Q 3359 1428 3425 1325 
L 4272 0 
z
M 1522 3725 
L 1522 2478 
L 1959 2478 
Q 2284 2478 2481 2666 
Q 2681 2856 2681 3138 
Q 2681 3725 1978 3725 
L 1522 3725 
z
" transform="scale(0.015625)"/>
       <path id="SegoeUI-Bold-65" d="M 3291 1319 
L 1203 1319 
Q 1253 622 2081 622 
Q 2609 622 3009 872 
L 3009 159 
Q 2566 -78 1856 -78 
Q 1081 -78 653 351 
Q 225 781 225 1550 
Q 225 2347 687 2812 
Q 1150 3278 1825 3278 
Q 2525 3278 2908 2862 
Q 3291 2447 3291 1734 
L 3291 1319 
z
M 2375 1925 
Q 2375 2613 1819 2613 
Q 1581 2613 1407 2416 
Q 1234 2219 1197 1925 
L 2375 1925 
z
" transform="scale(0.015625)"/>
       <path id="SegoeUI-Bold-61" d="M 3078 0 
L 2144 0 
L 2144 459 
L 2131 459 
Q 1809 -78 1178 -78 
Q 713 -78 445 186 
Q 178 450 178 891 
Q 178 1822 1281 1966 
L 2150 2081 
Q 2150 2606 1581 2606 
Q 1009 2606 494 2266 
L 494 3009 
Q 700 3116 1058 3197 
Q 1416 3278 1709 3278 
Q 3078 3278 3078 1913 
L 3078 0 
z
M 2150 1300 
L 2150 1516 
L 1569 1441 
Q 1088 1378 1088 1006 
Q 1088 838 1205 730 
Q 1322 622 1522 622 
Q 1800 622 1975 814 
Q 2150 1006 2150 1300 
z
" transform="scale(0.015625)"/>
       <path id="SegoeUI-Bold-64" d="M 3547 0 
L 2559 0 
L 2559 441 
L 2547 441 
Q 2209 -78 1556 -78 
Q 956 -78 590 345 
Q 225 769 225 1528 
Q 225 2322 628 2800 
Q 1031 3278 1684 3278 
Q 2303 3278 2547 2834 
L 2559 2834 
L 2559 4738 
L 3547 4738 
L 3547 0 
z
M 2578 1556 
L 2578 1797 
Q 2578 2109 2397 2315 
Q 2216 2522 1925 2522 
Q 1597 2522 1412 2264 
Q 1228 2006 1228 1556 
Q 1228 1134 1406 906 
Q 1584 678 1900 678 
Q 2200 678 2389 918 
Q 2578 1159 2578 1556 
z
" transform="scale(0.015625)"/>
       <path id="SegoeUI-Bold-69" d="M 916 3706 
Q 666 3706 506 3854 
Q 347 4003 347 4219 
Q 347 4441 506 4581 
Q 666 4722 916 4722 
Q 1169 4722 1326 4581 
Q 1484 4441 1484 4219 
Q 1484 3994 1326 3850 
Q 1169 3706 916 3706 
z
M 1403 0 
L 416 0 
L 416 3200 
L 1403 3200 
L 1403 0 
z
" transform="scale(0.015625)"/>
       <path id="SegoeUI-Bold-6e" d="M 3506 0 
L 2522 0 
L 2522 1778 
Q 2522 2522 1991 2522 
Q 1734 2522 1568 2325 
Q 1403 2128 1403 1825 
L 1403 0 
L 416 0 
L 416 3200 
L 1403 3200 
L 1403 2694 
L 1416 2694 
Q 1769 3278 2444 3278 
Q 3506 3278 3506 1959 
L 3506 0 
z
" transform="scale(0.015625)"/>
       <path id="SegoeUI-Bold-67" d="M 3553 366 
Q 3553 -525 3037 -1014 
Q 2522 -1503 1544 -1503 
Q 897 -1503 519 -1319 
L 519 -488 
Q 1013 -775 1516 -775 
Q 2016 -775 2291 -511 
Q 2566 -247 2566 206 
L 2566 459 
L 2553 459 
Q 2216 -78 1556 -78 
Q 944 -78 584 353 
Q 225 784 225 1509 
Q 225 2322 625 2800 
Q 1025 3278 1678 3278 
Q 2263 3278 2553 2828 
L 2566 2828 
L 2566 3200 
L 3553 3200 
L 3553 366 
z
M 2578 1538 
L 2578 1791 
Q 2578 2094 2398 2308 
Q 2219 2522 1931 2522 
Q 1603 2522 1415 2265 
Q 1228 2009 1228 1544 
Q 1228 1144 1406 911 
Q 1584 678 1894 678 
Q 2200 678 2389 914 
Q 2578 1150 2578 1538 
z
" transform="scale(0.015625)"/>
       <path id="SegoeUI-Bold-20" transform="scale(0.015625)"/>
       <path id="SegoeUI-Bold-4e" d="M 4544 0 
L 3525 0 
L 1678 2816 
Q 1516 3063 1453 3188 
L 1441 3188 
Q 1466 2950 1466 2463 
L 1466 0 
L 513 0 
L 513 4481 
L 1600 4481 
L 3378 1753 
Q 3500 1569 3603 1388 
L 3616 1388 
Q 3591 1544 3591 2003 
L 3591 4481 
L 4544 4481 
L 4544 0 
z
" transform="scale(0.015625)"/>
       <path id="SegoeUI-Bold-75" d="M 3456 0 
L 2472 0 
L 2472 488 
L 2456 488 
Q 2091 -78 1478 -78 
Q 366 -78 366 1269 
L 366 3200 
L 1350 3200 
L 1350 1356 
Q 1350 678 1888 678 
Q 2153 678 2312 864 
Q 2472 1050 2472 1369 
L 2472 3200 
L 3456 3200 
L 3456 0 
z
" transform="scale(0.015625)"/>
       <path id="SegoeUI-Bold-6d" d="M 5497 0 
L 4513 0 
L 4513 1825 
Q 4513 2522 4000 2522 
Q 3756 2522 3603 2312 
Q 3450 2103 3450 1791 
L 3450 0 
L 2463 0 
L 2463 1844 
Q 2463 2522 1959 2522 
Q 1706 2522 1554 2322 
Q 1403 2122 1403 1778 
L 1403 0 
L 416 0 
L 416 3200 
L 1403 3200 
L 1403 2700 
L 1416 2700 
Q 1569 2956 1845 3117 
Q 2122 3278 2450 3278 
Q 3128 3278 3378 2681 
Q 3744 3278 4453 3278 
Q 5497 3278 5497 1991 
L 5497 0 
z
" transform="scale(0.015625)"/>
       <path id="SegoeUI-Bold-62" d="M 1416 372 
L 1403 372 
L 1403 0 
L 416 0 
L 416 4738 
L 1403 4738 
L 1403 2719 
L 1416 2719 
Q 1781 3278 2456 3278 
Q 3075 3278 3409 2853 
Q 3744 2428 3744 1691 
Q 3744 891 3353 406 
Q 2963 -78 2309 -78 
Q 1719 -78 1416 372 
z
M 1388 1722 
L 1388 1394 
Q 1388 1084 1566 881 
Q 1744 678 2022 678 
Q 2359 678 2545 939 
Q 2731 1200 2731 1678 
Q 2731 2075 2561 2298 
Q 2391 2522 2075 2522 
Q 1778 2522 1583 2300 
Q 1388 2078 1388 1722 
z
" transform="scale(0.015625)"/>
       <path id="SegoeUI-Bold-72" d="M 2503 2309 
Q 2325 2406 2088 2406 
Q 1766 2406 1584 2170 
Q 1403 1934 1403 1528 
L 1403 0 
L 416 0 
L 416 3200 
L 1403 3200 
L 1403 2606 
L 1416 2606 
Q 1650 3256 2259 3256 
Q 2416 3256 2503 3219 
L 2503 2309 
z
" transform="scale(0.015625)"/>
      </defs>
      <use xlink:href="#SegoeUI-Bold-52"/>
      <use xlink:href="#SegoeUI-Bold-65" transform="translate(62.783203 0)"/>
      <use xlink:href="#SegoeUI-Bold-61" transform="translate(116.884766 0)"/>
      <use xlink:href="#SegoeUI-Bold-64" transform="translate(170.693359 0)"/>
      <use xlink:href="#SegoeUI-Bold-69" transform="translate(232.607422 0)"/>
      <use xlink:href="#SegoeUI-Bold-6e" transform="translate(261.025391 0)"/>
      <use xlink:href="#SegoeUI-Bold-67" transform="translate(321.523438 0)"/>
      <use xlink:href="#SegoeUI-Bold-20" transform="translate(383.4375 0)"/>
      <use xlink:href="#SegoeUI-Bold-4e" transform="translate(411.025391 0)"/>
      <use xlink:href="#SegoeUI-Bold-75" transform="translate(490.029297 0)"/>
      <use xlink:href="#SegoeUI-Bold-6d" transform="translate(550.527344 0)"/>
      <use xlink:href="#SegoeUI-Bold-62" transform="translate(642.128906 0)"/>
      <use xlink:href="#SegoeUI-Bold-65" transform="translate(704.140625 0)"/>
      <use xlink:href="#SegoeUI-Bold-72" transform="translate(758.242188 0)"/>
     </g>
    </g>
   </g>
   <g id="matplotlib.axis_2">
    <g id="ytick_1">
     <g id="line2d_15">
      <path d="M 53.641875 378.05415 
L 680.041875 378.05415 
" clip-path="url(#p379e2316bb)" style="fill: none; stroke: #cbcbcb"/>
     </g>
     <g id="line2d_16"/>
     <g id="text_9">
      <!-- 40 -->
      <g transform="translate(35.048125 383.236337) scale(0.14 -0.14)">
       <use xlink:href="#SegoeUI-34"/>
       <use xlink:href="#SegoeUI-30" transform="translate(53.90625 0)"/>
      </g>
     </g>
    </g>
    <g id="ytick_2">
     <g id="line2d_17">
      <path d="M 53.641875 339.17415 
L 680.041875 339.17415 
" clip-path="url(#p379e2316bb)" style="fill: none; stroke: #cbcbcb"/>
     </g>
     <g id="line2d_18"/>
     <g id="text_10">
      <!-- 50 -->
      <g transform="translate(35.048125 344.356337) scale(0.14 -0.14)">
       <use xlink:href="#SegoeUI-35"/>
       <use xlink:href="#SegoeUI-30" transform="translate(53.90625 0)"/>
      </g>
     </g>
    </g>
    <g id="ytick_3">
     <g id="line2d_19">
      <path d="M 53.641875 300.29415 
L 680.041875 300.29415 
" clip-path="url(#p379e2316bb)" style="fill: none; stroke: #cbcbcb"/>
     </g>
     <g id="line2d_20"/>
     <g id="text_11">
      <!-- 60 -->
      <g transform="translate(35.048125 305.476337) scale(0.14 -0.14)">
       <use xlink:href="#SegoeUI-36"/>
       <use xlink:href="#SegoeUI-30" transform="translate(53.90625 0)"/>
      </g>
     </g>
    </g>
    <g id="ytick_4">
     <g id="line2d_21">
      <path d="M 53.641875 261.41415 
L 680.041875 261.41415 
" clip-path="url(#p379e2316bb)" style="fill: none; stroke: #cbcbcb"/>
     </g>
     <g id="line2d_22"/>
     <g id="text_12">
      <!-- 70 -->
      <g transform="translate(35.048125 266.596338) scale(0.14 -0.14)">
       <defs>
        <path id="SegoeUI-37" d="M 3156 4184 
Q 3053 4006 2908 3740 
Q 2763 3475 2600 3144 
Q 2438 2813 2269 2431 
Q 2100 2050 1953 1644 
Q 1806 1238 1695 820 
Q 1584 403 1534 0 
L 984 0 
Q 1041 400 1158 817 
Q 1275 1234 1423 1636 
Q 1572 2038 1737 2409 
Q 1903 2781 2059 3093 
Q 2216 3406 2345 3645 
Q 2475 3884 2553 4019 
L 306 4019 
L 306 4481 
L 3156 4481 
L 3156 4184 
z
" transform="scale(0.015625)"/>
       </defs>
       <use xlink:href="#SegoeUI-37"/>
       <use xlink:href="#SegoeUI-30" transform="translate(53.90625 0)"/>
      </g>
     </g>
    </g>
    <g id="ytick_5">
     <g id="line2d_23">
      <path d="M 53.641875 222.53415 
L 680.041875 222.53415 
" clip-path="url(#p379e2316bb)" style="fill: none; stroke: #cbcbcb"/>
     </g>
     <g id="line2d_24"/>
     <g id="text_13">
      <!-- 80 -->
      <g transform="translate(35.048125 227.716337) scale(0.14 -0.14)">
       <defs>
        <path id="SegoeUI-38" d="M 281 1250 
Q 281 1428 337 1608 
Q 394 1788 498 1944 
Q 603 2100 758 2228 
Q 913 2356 1109 2431 
Q 819 2594 647 2848 
Q 475 3103 475 3413 
Q 475 3659 570 3868 
Q 666 4078 834 4231 
Q 1003 4384 1234 4470 
Q 1466 4556 1734 4556 
Q 2006 4556 2237 4468 
Q 2469 4381 2637 4228 
Q 2806 4075 2900 3865 
Q 2994 3656 2994 3413 
Q 2994 3103 2822 2848 
Q 2650 2594 2366 2431 
Q 2559 2356 2712 2228 
Q 2866 2100 2970 1944 
Q 3075 1788 3131 1608 
Q 3188 1428 3188 1250 
Q 3188 956 3081 712 
Q 2975 469 2783 295 
Q 2591 122 2323 25 
Q 2056 -72 1734 -72 
Q 1416 -72 1150 25 
Q 884 122 690 295 
Q 497 469 389 712 
Q 281 956 281 1250 
z
M 838 1294 
Q 838 1084 902 915 
Q 966 747 1083 628 
Q 1200 509 1367 445 
Q 1534 381 1738 381 
Q 1934 381 2100 447 
Q 2266 513 2386 631 
Q 2506 750 2573 919 
Q 2641 1088 2641 1294 
Q 2641 1481 2577 1645 
Q 2513 1809 2394 1934 
Q 2275 2059 2109 2131 
Q 1944 2203 1738 2203 
Q 1544 2203 1380 2136 
Q 1216 2069 1095 1948 
Q 975 1828 906 1661 
Q 838 1494 838 1294 
z
M 997 3372 
Q 997 3213 1055 3077 
Q 1113 2941 1214 2839 
Q 1316 2738 1450 2680 
Q 1584 2622 1738 2622 
Q 1891 2622 2027 2681 
Q 2163 2741 2263 2842 
Q 2363 2944 2422 3080 
Q 2481 3216 2481 3372 
Q 2481 3534 2423 3671 
Q 2366 3809 2266 3909 
Q 2166 4009 2030 4067 
Q 1894 4125 1738 4125 
Q 1572 4125 1436 4065 
Q 1300 4006 1201 3904 
Q 1103 3803 1050 3665 
Q 997 3528 997 3372 
z
" transform="scale(0.015625)"/>
       </defs>
       <use xlink:href="#SegoeUI-38"/>
       <use xlink:href="#SegoeUI-30" transform="translate(53.90625 0)"/>
      </g>
     </g>
    </g>
    <g id="ytick_6">
     <g id="line2d_25">
      <path d="M 53.641875 183.65415 
L 680.041875 183.65415 
" clip-path="url(#p379e2316bb)" style="fill: none; stroke: #cbcbcb"/>
     </g>
     <g id="line2d_26"/>
     <g id="text_14">
      <!-- 90 -->
      <g transform="translate(35.048125 188.836337) scale(0.14 -0.14)">
       <defs>
        <path id="SegoeUI-39" d="M 3138 2509 
Q 3138 1894 3016 1414 
Q 2894 934 2659 601 
Q 2425 269 2087 95 
Q 1750 -78 1319 -78 
Q 875 -78 538 78 
L 538 569 
Q 909 359 1331 359 
Q 1634 359 1873 484 
Q 2113 609 2278 848 
Q 2444 1088 2531 1438 
Q 2619 1788 2619 2241 
L 2606 2241 
Q 2319 1663 1606 1663 
Q 1319 1663 1078 1764 
Q 838 1866 663 2052 
Q 488 2238 391 2494 
Q 294 2750 294 3059 
Q 294 3391 401 3666 
Q 509 3941 701 4139 
Q 894 4338 1158 4447 
Q 1422 4556 1734 4556 
Q 2072 4556 2333 4420 
Q 2594 4284 2772 4023 
Q 2950 3763 3044 3381 
Q 3138 3000 3138 2509 
z
M 2584 2969 
Q 2584 3228 2517 3440 
Q 2450 3653 2331 3804 
Q 2213 3956 2048 4039 
Q 1884 4122 1691 4122 
Q 1506 4122 1347 4048 
Q 1188 3975 1070 3842 
Q 953 3709 886 3526 
Q 819 3344 819 3128 
Q 819 2891 883 2703 
Q 947 2516 1065 2386 
Q 1184 2256 1351 2187 
Q 1519 2119 1722 2119 
Q 1900 2119 2058 2186 
Q 2216 2253 2333 2367 
Q 2450 2481 2517 2636 
Q 2584 2791 2584 2969 
z
" transform="scale(0.015625)"/>
       </defs>
       <use xlink:href="#SegoeUI-39"/>
       <use xlink:href="#SegoeUI-30" transform="translate(53.90625 0)"/>
      </g>
     </g>
    </g>
    <g id="ytick_7">
     <g id="line2d_27">
      <path d="M 53.641875 144.77415 
L 680.041875 144.77415 
" clip-path="url(#p379e2316bb)" style="fill: none; stroke: #cbcbcb"/>
     </g>
     <g id="line2d_28"/>
     <g id="text_15">
      <!-- 100 -->
      <g transform="translate(27.50125 149.956338) scale(0.14 -0.14)">
       <use xlink:href="#SegoeUI-31"/>
       <use xlink:href="#SegoeUI-30" transform="translate(53.90625 0)"/>
       <use xlink:href="#SegoeUI-30" transform="translate(107.8125 0)"/>
      </g>
     </g>
    </g>
    <g id="ytick_8">
     <g id="line2d_29">
      <path d="M 53.641875 105.89415 
L 680.041875 105.89415 
" clip-path="url(#p379e2316bb)" style="fill: none; stroke: #cbcbcb"/>
     </g>
     <g id="line2d_30"/>
     <g id="text_16">
      <!-- 110 -->
      <g transform="translate(27.50125 111.076338) scale(0.14 -0.14)">
       <use xlink:href="#SegoeUI-31"/>
       <use xlink:href="#SegoeUI-31" transform="translate(53.90625 0)"/>
       <use xlink:href="#SegoeUI-30" transform="translate(107.8125 0)"/>
      </g>
     </g>
    </g>
    <g id="ytick_9">
     <g id="line2d_31">
      <path d="M 53.641875 67.01415 
L 680.041875 67.01415 
" clip-path="url(#p379e2316bb)" style="fill: none; stroke: #cbcbcb"/>
     </g>
     <g id="line2d_32"/>
     <g id="text_17">
      <!-- 120 -->
      <g transform="translate(27.50125 72.196337) scale(0.14 -0.14)">
       <use xlink:href="#SegoeUI-31"/>
       <use xlink:href="#SegoeUI-32" transform="translate(53.90625 0)"/>
       <use xlink:href="#SegoeUI-30" transform="translate(107.8125 0)"/>
      </g>
     </g>
    </g>
    <g id="ytick_10">
     <g id="line2d_33">
      <path d="M 53.641875 28.13415 
L 680.041875 28.13415 
" clip-path="url(#p379e2316bb)" style="fill: none; stroke: #cbcbcb"/>
     </g>
     <g id="line2d_34"/>
     <g id="text_18">
      <!-- 130 -->
      <g transform="translate(27.50125 33.316337) scale(0.14 -0.14)">
       <use xlink:href="#SegoeUI-31"/>
       <use xlink:href="#SegoeUI-33" transform="translate(53.90625 0)"/>
       <use xlink:href="#SegoeUI-30" transform="translate(107.8125 0)"/>
      </g>
     </g>
    </g>
    <g id="text_19">
     <!-- Heart Rate (BPM) -->
     <g style="fill: #333333" transform="translate(19.63725 272.657962) rotate(-90) scale(0.168 -0.168)">
      <defs>
       <path id="SegoeUI-Bold-48" d="M 4391 0 
L 3378 0 
L 3378 1825 
L 1522 1825 
L 1522 0 
L 513 0 
L 513 4481 
L 1522 4481 
L 1522 2694 
L 3378 2694 
L 3378 4481 
L 4391 4481 
L 4391 0 
z
" transform="scale(0.015625)"/>
       <path id="SegoeUI-Bold-74" d="M 2350 38 
Q 2131 -78 1691 -78 
Q 647 -78 647 1006 
L 647 2472 
L 128 2472 
L 128 3200 
L 647 3200 
L 647 3891 
L 1631 4172 
L 1631 3200 
L 2350 3200 
L 2350 2472 
L 1631 2472 
L 1631 1178 
Q 1631 678 2028 678 
Q 2184 678 2350 769 
L 2350 38 
z
" transform="scale(0.015625)"/>
       <path id="SegoeUI-Bold-28" d="M 2309 -1019 
L 1503 -1019 
Q 494 94 494 1716 
Q 494 3281 1503 4481 
L 2303 4481 
Q 1356 3225 1356 1716 
Q 1356 206 2309 -1019 
z
" transform="scale(0.015625)"/>
       <path id="SegoeUI-Bold-42" d="M 513 0 
L 513 4481 
L 2144 4481 
Q 2894 4481 3297 4206 
Q 3700 3931 3700 3431 
Q 3700 3069 3454 2797 
Q 3209 2525 2828 2419 
L 2828 2406 
Q 3306 2347 3592 2053 
Q 3878 1759 3878 1338 
Q 3878 722 3437 361 
Q 2997 0 2234 0 
L 513 0 
z
M 1522 3738 
L 1522 2675 
L 1966 2675 
Q 2278 2675 2458 2826 
Q 2638 2978 2638 3244 
Q 2638 3738 1900 3738 
L 1522 3738 
z
M 1522 1925 
L 1522 744 
L 2069 744 
Q 2419 744 2617 906 
Q 2816 1069 2816 1350 
Q 2816 1619 2620 1772 
Q 2425 1925 2075 1925 
L 1522 1925 
z
" transform="scale(0.015625)"/>
       <path id="SegoeUI-Bold-50" d="M 1522 1544 
L 1522 0 
L 513 0 
L 513 4481 
L 2094 4481 
Q 3788 4481 3788 3053 
Q 3788 2378 3302 1961 
Q 2816 1544 2003 1544 
L 1522 1544 
z
M 1522 3706 
L 1522 2309 
L 1919 2309 
Q 2725 2309 2725 3016 
Q 2725 3706 1919 3706 
L 1522 3706 
z
" transform="scale(0.015625)"/>
       <path id="SegoeUI-Bold-4d" d="M 5619 0 
L 4622 0 
L 4622 2681 
Q 4622 3116 4659 3641 
L 4634 3641 
Q 4556 3228 4494 3047 
L 3444 0 
L 2619 0 
L 1550 3016 
Q 1506 3138 1409 3641 
L 1381 3641 
Q 1422 2978 1422 2478 
L 1422 0 
L 513 0 
L 513 4481 
L 1991 4481 
L 2906 1825 
Q 3016 1506 3066 1184 
L 3084 1184 
Q 3169 1556 3263 1831 
L 4178 4481 
L 5619 4481 
L 5619 0 
z
" transform="scale(0.015625)"/>
       <path id="SegoeUI-Bold-29" d="M 856 -1019 
L 56 -1019 
Q 1013 200 1013 1716 
Q 1013 3219 56 4481 
L 863 4481 
Q 1875 3278 1875 1716 
Q 1875 106 856 -1019 
z
" transform="scale(0.015625)"/>
      </defs>
      <use xlink:href="#SegoeUI-Bold-48"/>
      <use xlink:href="#SegoeUI-Bold-65" transform="translate(76.611328 0)"/>
      <use xlink:href="#SegoeUI-Bold-61" transform="translate(130.712891 0)"/>
      <use xlink:href="#SegoeUI-Bold-72" transform="translate(184.521484 0)"/>
      <use xlink:href="#SegoeUI-Bold-74" transform="translate(227.191406 0)"/>
      <use xlink:href="#SegoeUI-Bold-20" transform="translate(266.107422 0)"/>
      <use xlink:href="#SegoeUI-Bold-52" transform="translate(293.695312 0)"/>
      <use xlink:href="#SegoeUI-Bold-61" transform="translate(358.978516 0)"/>
      <use xlink:href="#SegoeUI-Bold-74" transform="translate(412.787109 0)"/>
      <use xlink:href="#SegoeUI-Bold-65" transform="translate(451.328125 0)"/>
      <use xlink:href="#SegoeUI-Bold-20" transform="translate(505.429688 0)"/>
      <use xlink:href="#SegoeUI-Bold-28" transform="translate(533.017578 0)"/>
      <use xlink:href="#SegoeUI-Bold-42" transform="translate(569.931641 0)"/>
      <use xlink:href="#SegoeUI-Bold-50" transform="translate(634.042969 0)"/>
      <use xlink:href="#SegoeUI-Bold-4d" transform="translate(695.46875 0)"/>
      <use xlink:href="#SegoeUI-Bold-29" transform="translate(791.171875 0)"/>
     </g>
    </g>
   </g>
   <g id="line2d_35">
    <path d="M 82.114602 265.30215 
L 91.299353 241.97415 
L 100.484104 206.98215 
L 109.668854 226.42215 
L 118.853605 253.63815 
L 128.038356 265.30215 
L 137.223107 171.99015 
L 146.407857 179.76615 
L 155.592608 253.63815 
L 164.777359 238.08615 
L 173.96211 265.30215 
L 183.14686 257.52615 
L 192.331611 300.29415 
L 201.516362 288.63015 
L 210.701113 273.07815 
L 219.885863 308.07015 
L 229.070614 288.63015 
L 238.255365 296.40615 
L 247.440115 280.85415 
L 256.624866 276.96615 
L 265.809617 292.51815 
L 274.994368 273.07815 
L 284.179118 296.40615 
L 293.363869 288.63015 
L 302.54862 296.40615 
L 311.733371 230.31015 
L 320.918121 292.51815 
L 330.102872 300.29415 
L 339.287623 304.18215 
L 348.472374 241.97415 
L 357.657124 280.85415 
L 366.841875 284.74215 
L 376.026626 300.29415 
L 385.211376 300.29415 
L 394.396127 288.63015 
L 403.580878 292.51815 
L 412.765629 269.19015 
L 421.950379 288.63015 
L 431.13513 296.40615 
L 440.319881 276.96615 
L 449.504632 300.29415 
L 458.689382 315.84615 
L 467.874133 315.84615 
L 477.058884 323.62215 
L 486.243635 323.62215 
L 495.428385 323.62215 
L 504.613136 226.42215 
L 513.797887 269.19015 
L 522.982637 319.73415 
L 532.167388 319.73415 
L 541.352139 315.84615 
L 550.53689 273.07815 
L 559.72164 308.07015 
L 568.906391 292.51815 
L 578.091142 300.29415 
L 587.275893 292.51815 
L 596.460643 261.41415 
L 605.645394 300.29415 
L 614.830145 319.73415 
L 624.014896 319.73415 
L 633.199646 311.95815 
L 642.384397 311.95815 
L 651.569148 315.84615 
" clip-path="url(#p379e2316bb)" style="fill: none; stroke: #f26386; stroke-width: 2.5"/>
   </g>
   <g id="patch_3">
    <path d="M 53.641875 378.05415 
L 53.641875 28.13415 
" style="fill: none; stroke: #f0f0f0; stroke-width: 3; stroke-linejoin: miter; stroke-linecap: square"/>
   </g>
   <g id="patch_4">
    <path d="M 680.041875 378.05415 
L 680.041875 28.13415 
" style="fill: none; stroke: #f0f0f0; stroke-width: 3; stroke-linejoin: miter; stroke-linecap: square"/>
   </g>
   <g id="patch_5">
    <path d="M 53.641875 378.05415 
L 680.041875 378.05415 
" style="fill: none; stroke: #f0f0f0; stroke-width: 3; stroke-linejoin: miter; stroke-linecap: square"/>
   </g>
   <g id="patch_6">
    <path d="M 53.641875 28.13415 
L 680.041875 28.13415 
" style="fill: none; stroke: #f0f0f0; stroke-width: 3; stroke-linejoin: miter; stroke-linecap: square"/>
   </g>
   <g id="text_20">
    <g id="patch_7">
     <path d="M 556.715625 89.569375 
L 648.721875 89.569375 
Q 652.921875 89.569375 652.921875 85.369375 
L 652.921875 56.053375 
Q 652.921875 51.853375 648.721875 51.853375 
L 556.715625 51.853375 
Q 552.515625 51.853375 552.515625 56.053375 
L 552.515625 85.369375 
Q 552.515625 89.569375 556.715625 89.569375 
z
" style="fill: #ffffff; opacity: 0.7; stroke: #f0f0f0; stroke-width: 0.5; stroke-linejoin: miter"/>
    </g>
    <!-- Average: 64.59 -->
    <g transform="translate(558.397812 66.41775) scale(0.14 -0.14)">
     <defs>
      <path id="SegoeUI-41" d="M 4056 0 
L 3475 0 
L 3000 1256 
L 1100 1256 
L 653 0 
L 69 0 
L 1788 4481 
L 2331 4481 
L 4056 0 
z
M 2828 1728 
L 2125 3638 
Q 2091 3731 2056 3938 
L 2044 3938 
Q 2013 3747 1972 3638 
L 1275 1728 
L 2828 1728 
z
" transform="scale(0.015625)"/>
      <path id="SegoeUI-76" d="M 3034 3200 
L 1759 0 
L 1256 0 
L 44 3200 
L 606 3200 
L 1419 875 
Q 1509 619 1531 428 
L 1544 428 
Q 1575 669 1644 863 
L 2494 3200 
L 3034 3200 
z
" transform="scale(0.015625)"/>
      <path id="SegoeUI-65" d="M 3091 1472 
L 831 1472 
Q 844 938 1119 647 
Q 1394 356 1875 356 
Q 2416 356 2869 713 
L 2869 231 
Q 2447 -75 1753 -75 
Q 1075 -75 687 361 
Q 300 797 300 1588 
Q 300 2334 723 2804 
Q 1147 3275 1775 3275 
Q 2403 3275 2747 2869 
Q 3091 2463 3091 1741 
L 3091 1472 
z
M 2566 1906 
Q 2563 2350 2352 2597 
Q 2141 2844 1766 2844 
Q 1403 2844 1150 2584 
Q 897 2325 838 1906 
L 2566 1906 
z
" transform="scale(0.015625)"/>
      <path id="SegoeUI-72" d="M 2188 2681 
Q 2053 2784 1800 2784 
Q 1472 2784 1251 2475 
Q 1031 2166 1031 1631 
L 1031 0 
L 519 0 
L 519 3200 
L 1031 3200 
L 1031 2541 
L 1044 2541 
Q 1153 2878 1378 3067 
Q 1603 3256 1881 3256 
Q 2081 3256 2188 3213 
L 2188 2681 
z
" transform="scale(0.015625)"/>
      <path id="SegoeUI-61" d="M 2809 0 
L 2297 0 
L 2297 500 
L 2284 500 
Q 1950 -75 1300 -75 
Q 822 -75 551 178 
Q 281 431 281 850 
Q 281 1747 1338 1894 
L 2297 2028 
Q 2297 2844 1638 2844 
Q 1059 2844 594 2450 
L 594 2975 
Q 1066 3275 1681 3275 
Q 2809 3275 2809 2081 
L 2809 0 
z
M 2297 1619 
L 1525 1513 
Q 1169 1463 987 1336 
Q 806 1209 806 888 
Q 806 653 973 504 
Q 1141 356 1419 356 
Q 1800 356 2048 623 
Q 2297 891 2297 1300 
L 2297 1619 
z
" transform="scale(0.015625)"/>
      <path id="SegoeUI-67" d="M 3250 256 
Q 3250 -1506 1563 -1506 
Q 969 -1506 525 -1281 
L 525 -769 
Q 1066 -1069 1556 -1069 
Q 2738 -1069 2738 188 
L 2738 538 
L 2725 538 
Q 2359 -75 1625 -75 
Q 1028 -75 664 351 
Q 300 778 300 1497 
Q 300 2313 692 2794 
Q 1084 3275 1766 3275 
Q 2413 3275 2725 2756 
L 2738 2756 
L 2738 3200 
L 3250 3200 
L 3250 256 
z
M 2738 1447 
L 2738 1919 
Q 2738 2300 2480 2572 
Q 2222 2844 1838 2844 
Q 1363 2844 1094 2498 
Q 825 2153 825 1531 
Q 825 997 1083 676 
Q 1341 356 1766 356 
Q 2197 356 2467 662 
Q 2738 969 2738 1447 
z
" transform="scale(0.015625)"/>
      <path id="SegoeUI-3a" d="M 697 2575 
Q 553 2575 451 2678 
Q 350 2781 350 2925 
Q 350 3069 451 3169 
Q 553 3269 697 3269 
Q 844 3269 947 3169 
Q 1050 3069 1050 2925 
Q 1050 2781 947 2678 
Q 844 2575 697 2575 
z
M 697 -69 
Q 553 -69 451 34 
Q 350 138 350 281 
Q 350 425 451 529 
Q 553 634 697 634 
Q 844 634 947 529 
Q 1050 425 1050 281 
Q 1050 138 947 34 
Q 844 -69 697 -69 
z
" transform="scale(0.015625)"/>
      <path id="SegoeUI-20" transform="scale(0.015625)"/>
      <path id="SegoeUI-2e" d="M 697 -69 
Q 553 -69 451 34 
Q 350 138 350 281 
Q 350 425 451 529 
Q 553 634 697 634 
Q 844 634 947 529 
Q 1050 425 1050 281 
Q 1050 138 947 34 
Q 844 -69 697 -69 
z
" transform="scale(0.015625)"/>
     </defs>
     <use xlink:href="#SegoeUI-41"/>
     <use xlink:href="#SegoeUI-76" transform="translate(62.376953 0)"/>
     <use xlink:href="#SegoeUI-65" transform="translate(109.652344 0)"/>
     <use xlink:href="#SegoeUI-72" transform="translate(161.947266 0)"/>
     <use xlink:href="#SegoeUI-61" transform="translate(196.712891 0)"/>
     <use xlink:href="#SegoeUI-67" transform="translate(247.591797 0)"/>
     <use xlink:href="#SegoeUI-65" transform="translate(306.478516 0)"/>
     <use xlink:href="#SegoeUI-3a" transform="translate(358.773438 0)"/>
     <use xlink:href="#SegoeUI-20" transform="translate(380.453125 0)"/>
     <use xlink:href="#SegoeUI-36" transform="translate(407.845703 0)"/>
     <use xlink:href="#SegoeUI-34" transform="translate(461.751953 0)"/>
     <use xlink:href="#SegoeUI-2e" transform="translate(515.658203 0)"/>
     <use xlink:href="#SegoeUI-35" transform="translate(537.337891 0)"/>
     <use xlink:href="#SegoeUI-39" transform="translate(591.244141 0)"/>
    </g>
    <!-- Variance: 73.96 -->
    <g transform="translate(556.715625 82.149375) scale(0.14 -0.14)">
     <defs>
      <path id="SegoeUI-56" d="M 3919 4481 
L 2259 0 
L 1681 0 
L 56 4481 
L 641 4481 
L 1881 928 
Q 1941 756 1972 531 
L 1984 531 
Q 2009 719 2088 934 
L 3353 4481 
L 3919 4481 
z
" transform="scale(0.015625)"/>
      <path id="SegoeUI-69" d="M 781 4013 
Q 644 4013 547 4106 
Q 450 4200 450 4344 
Q 450 4488 547 4583 
Q 644 4678 781 4678 
Q 922 4678 1020 4583 
Q 1119 4488 1119 4344 
Q 1119 4206 1020 4109 
Q 922 4013 781 4013 
z
M 1031 0 
L 519 0 
L 519 3200 
L 1031 3200 
L 1031 0 
z
" transform="scale(0.015625)"/>
      <path id="SegoeUI-6e" d="M 3175 0 
L 2663 0 
L 2663 1825 
Q 2663 2844 1919 2844 
Q 1534 2844 1282 2555 
Q 1031 2266 1031 1825 
L 1031 0 
L 519 0 
L 519 3200 
L 1031 3200 
L 1031 2669 
L 1044 2669 
Q 1406 3275 2094 3275 
Q 2619 3275 2897 2936 
Q 3175 2597 3175 1956 
L 3175 0 
z
" transform="scale(0.015625)"/>
      <path id="SegoeUI-63" d="M 2700 147 
Q 2331 -75 1825 -75 
Q 1141 -75 720 370 
Q 300 816 300 1525 
Q 300 2316 753 2795 
Q 1206 3275 1963 3275 
Q 2384 3275 2706 3119 
L 2706 2594 
Q 2350 2844 1944 2844 
Q 1453 2844 1139 2492 
Q 825 2141 825 1569 
Q 825 1006 1120 681 
Q 1416 356 1913 356 
Q 2331 356 2700 634 
L 2700 147 
z
" transform="scale(0.015625)"/>
     </defs>
     <use xlink:href="#SegoeUI-56"/>
     <use xlink:href="#SegoeUI-61" transform="translate(54.984375 0)"/>
     <use xlink:href="#SegoeUI-72" transform="translate(105.863281 0)"/>
     <use xlink:href="#SegoeUI-69" transform="translate(140.628906 0)"/>
     <use xlink:href="#SegoeUI-61" transform="translate(164.847656 0)"/>
     <use xlink:href="#SegoeUI-6e" transform="translate(215.726562 0)"/>
     <use xlink:href="#SegoeUI-63" transform="translate(272.318359 0)"/>
     <use xlink:href="#SegoeUI-65" transform="translate(318.509766 0)"/>
     <use xlink:href="#SegoeUI-3a" transform="translate(370.804688 0)"/>
     <use xlink:href="#SegoeUI-20" transform="translate(392.484375 0)"/>
     <use xlink:href="#SegoeUI-37" transform="translate(419.876953 0)"/>
     <use xlink:href="#SegoeUI-33" transform="translate(473.783203 0)"/>
     <use xlink:href="#SegoeUI-2e" transform="translate(527.689453 0)"/>
     <use xlink:href="#SegoeUI-39" transform="translate(549.369141 0)"/>
     <use xlink:href="#SegoeUI-36" transform="translate(603.275391 0)"/>
    </g>
   </g>
   <g id="text_21">
    <!-- PHASE0 -->
    <g transform="translate(332.0643 22.13415) scale(0.2016 -0.2016)">
     <defs>
      <path id="SegoeUI-Italic-50" d="M 3675 3303 
Q 3675 2972 3562 2680 
Q 3450 2388 3220 2169 
Q 2991 1950 2637 1823 
Q 2284 1697 1806 1697 
L 1125 1697 
L 769 0 
L 231 0 
L 1178 4481 
L 2338 4481 
Q 2697 4481 2951 4382 
Q 3206 4284 3367 4120 
Q 3528 3956 3601 3743 
Q 3675 3531 3675 3303 
z
M 3122 3256 
Q 3122 3425 3064 3564 
Q 3006 3703 2893 3801 
Q 2781 3900 2614 3953 
Q 2447 4006 2228 4006 
L 1619 4006 
L 1228 2169 
L 1856 2169 
Q 2188 2169 2427 2251 
Q 2666 2334 2820 2479 
Q 2975 2625 3048 2823 
Q 3122 3022 3122 3256 
z
" transform="scale(0.015625)"/>
      <path id="SegoeUI-Italic-48" d="M 3597 0 
L 3059 0 
L 3488 2022 
L 1197 2022 
L 775 0 
L 231 0 
L 1178 4481 
L 1722 4481 
L 1300 2516 
L 3591 2516 
L 4013 4481 
L 4550 4481 
L 3597 0 
z
" transform="scale(0.015625)"/>
      <path id="SegoeUI-Italic-41" d="M 3122 0 
L 2919 1253 
L 1019 1253 
L 294 0 
L -325 0 
L 2344 4481 
L 2894 4481 
L 3675 0 
L 3122 0 
z
M 2547 3634 
Q 2544 3666 2542 3706 
Q 2541 3747 2541 3788 
Q 2541 3831 2541 3869 
Q 2541 3909 2541 3938 
L 2528 3938 
Q 2519 3909 2503 3870 
Q 2488 3831 2469 3789 
Q 2450 3747 2429 3706 
Q 2409 3666 2394 3634 
L 1288 1728 
L 2834 1728 
L 2547 3634 
z
" transform="scale(0.015625)"/>
      <path id="SegoeUI-Italic-53" d="M 3097 3809 
Q 3019 3866 2911 3916 
Q 2803 3966 2679 4003 
Q 2556 4041 2422 4062 
Q 2288 4084 2156 4084 
Q 1906 4084 1736 4014 
Q 1566 3944 1462 3836 
Q 1359 3728 1314 3600 
Q 1269 3472 1269 3359 
Q 1269 3213 1309 3094 
Q 1350 2975 1431 2865 
Q 1513 2756 1641 2647 
Q 1769 2538 1941 2413 
Q 2134 2272 2286 2134 
Q 2438 1997 2544 1851 
Q 2650 1706 2704 1545 
Q 2759 1384 2759 1197 
Q 2759 1081 2736 942 
Q 2713 803 2652 662 
Q 2591 522 2484 387 
Q 2378 253 2214 150 
Q 2050 47 1819 -15 
Q 1588 -78 1275 -78 
Q 1100 -78 931 -53 
Q 763 -28 611 12 
Q 459 53 332 104 
Q 206 156 116 206 
L 206 750 
Q 306 678 434 614 
Q 563 550 706 501 
Q 850 453 1003 425 
Q 1156 397 1306 397 
Q 1544 397 1714 453 
Q 1884 509 1995 607 
Q 2106 706 2157 840 
Q 2209 975 2209 1131 
Q 2209 1272 2165 1384 
Q 2122 1497 2031 1605 
Q 1941 1713 1802 1823 
Q 1663 1934 1472 2069 
Q 1319 2178 1180 2304 
Q 1041 2431 936 2581 
Q 831 2731 770 2907 
Q 709 3084 709 3291 
Q 709 3547 804 3776 
Q 900 4006 1087 4179 
Q 1275 4353 1551 4454 
Q 1828 4556 2194 4556 
Q 2334 4556 2473 4539 
Q 2613 4522 2744 4492 
Q 2875 4463 2992 4427 
Q 3109 4391 3200 4353 
L 3097 3809 
z
" transform="scale(0.015625)"/>
      <path id="SegoeUI-Italic-45" d="M 3347 4006 
L 1619 4006 
L 1294 2478 
L 2894 2478 
L 2791 2003 
L 1191 2003 
L 863 475 
L 2700 475 
L 2606 0 
L 231 0 
L 1178 4481 
L 3450 4481 
L 3347 4006 
z
" transform="scale(0.015625)"/>
      <path id="SegoeUI-Italic-30" d="M 3431 3231 
Q 3431 2997 3409 2742 
Q 3388 2488 3341 2228 
Q 3294 1969 3220 1714 
Q 3147 1459 3044 1221 
Q 2941 984 2808 773 
Q 2675 563 2509 391 
Q 2059 -78 1428 -78 
Q 1175 -78 964 20 
Q 753 119 603 308 
Q 453 497 370 773 
Q 288 1050 288 1409 
Q 288 1756 344 2126 
Q 400 2497 515 2848 
Q 631 3200 803 3512 
Q 975 3825 1209 4063 
Q 1431 4297 1706 4426 
Q 1981 4556 2328 4556 
Q 2578 4556 2781 4472 
Q 2984 4388 3129 4220 
Q 3275 4053 3353 3806 
Q 3431 3559 3431 3231 
z
M 2913 3188 
Q 2913 3625 2750 3873 
Q 2588 4122 2278 4122 
Q 2094 4122 1931 4042 
Q 1769 3963 1613 3803 
Q 1491 3675 1383 3498 
Q 1275 3322 1186 3117 
Q 1097 2913 1028 2688 
Q 959 2463 911 2238 
Q 863 2013 838 1797 
Q 813 1581 813 1394 
Q 813 1122 864 926 
Q 916 731 1006 604 
Q 1097 478 1220 418 
Q 1344 359 1484 359 
Q 1653 359 1815 434 
Q 1978 509 2119 659 
Q 2284 838 2428 1120 
Q 2572 1403 2680 1743 
Q 2788 2084 2850 2457 
Q 2913 2831 2913 3188 
z
" transform="scale(0.015625)"/>
     </defs>
     <use xlink:href="#SegoeUI-Italic-50"/>
     <use xlink:href="#SegoeUI-Italic-48" transform="translate(57.519531 0)"/>
     <use xlink:href="#SegoeUI-Italic-41" transform="translate(128.320312 0)"/>
     <use xlink:href="#SegoeUI-Italic-53" transform="translate(191.503906 0)"/>
     <use xlink:href="#SegoeUI-Italic-45" transform="translate(241.210938 0)"/>
     <use xlink:href="#SegoeUI-Italic-30" transform="translate(291.113281 0)"/>
    </g>
   </g>
  </g>
 </g>
 <defs>
  <clipPath id="p379e2316bb">
   <rect x="53.641875" y="28.13415" width="626.4" height="349.92"/>
  </clipPath>
 </defs>
</svg>
